<?xml version="1.0" standalone="no"?>
<!DOCTYPE svg PUBLIC "-//W3C//DTD SVG 20010904//EN"
 "http://www.w3.org/TR/2001/REC-SVG-20010904/DTD/svg10.dtd">
<svg version="1.0" xmlns="http://www.w3.org/2000/svg"
 width="3508.000000pt" height="806.000000pt" viewBox="0 0 3508.000000 806.000000"
 preserveAspectRatio="xMidYMid meet">

<g transform="translate(0.000000,806.000000) scale(0.100000,-0.100000)"
fill="#000000" stroke="none">
<path d="M21935 6844 c-361 -15 -671 -69 -971 -169 -176 -59 -445 -206 -587
-322 -189 -155 -372 -409 -486 -674 -170 -398 -251 -835 -251 -1364 0 -547 90
-1022 266 -1394 26 -56 50 -101 53 -101 3 0 76 116 161 258 85 141 187 306
227 366 106 156 101 133 49 240 -25 52 -53 96 -62 100 -9 4 -39 -7 -71 -25
-47 -27 -65 -32 -122 -32 -96 1 -110 9 -160 99 -25 44 -65 110 -90 147 -66 98
-71 108 -70 147 0 50 17 75 87 129 33 26 92 83 129 126 111 129 282 255 378
280 74 19 117 19 197 0 35 -8 142 -19 238 -25 320 -19 419 -47 504 -141 104
-115 176 -233 236 -385 21 -51 49 -97 84 -138 188 -216 627 -797 661 -873 1
-2 48 -8 106 -13 221 -23 312 -41 516 -106 112 -36 213 -64 225 -62 33 5 56
46 82 148 29 110 99 316 125 369 10 20 31 79 46 131 15 52 47 135 73 184 40
78 52 93 103 126 98 63 114 67 166 40 53 -28 210 -191 276 -286 26 -38 84
-124 128 -191 61 -94 95 -136 151 -183 39 -33 75 -57 79 -53 10 11 74 269 98
393 104 550 87 1121 -50 1680 -72 290 -169 523 -306 730 -56 85 -110 148 -202
240 -306 305 -633 456 -1186 549 -241 41 -599 64 -830 55z"/>
<path d="M14730 6789 c-511 -31 -962 -236 -1311 -596 -319 -328 -533 -725
-633 -1173 -39 -178 -55 -297 -68 -520 -6 -113 -12 -207 -14 -209 -2 -2 -26
19 -54 45 -130 123 -326 247 -665 419 -115 59 -241 125 -280 148 -210 121
-408 282 -474 386 -38 59 -66 134 -51 139 5 2 10 26 10 53 0 27 5 49 10 49 6
0 10 9 10 20 0 11 5 20 10 20 6 0 10 9 10 20 0 11 5 20 10 20 6 0 10 8 10 18
0 10 9 24 20 32 11 8 20 20 20 28 0 16 45 62 61 62 6 0 24 14 39 30 15 17 35
30 44 30 9 0 16 5 16 10 0 6 9 10 20 10 11 0 20 5 20 10 0 6 14 10 30 10 17 0
30 5 30 10 0 6 18 10 40 10 22 0 40 5 40 10 0 15 143 12 245 -6 212 -36 415
-127 634 -283 40 -29 75 -50 79 -47 4 2 18 36 32 75 13 39 30 71 37 71 7 0 13
9 13 20 0 11 5 20 10 20 6 0 10 9 10 20 0 11 5 20 10 20 6 0 10 9 10 20 0 11
5 20 10 20 6 0 10 14 10 30 0 17 5 30 10 30 6 0 10 14 10 30 0 17 5 30 10 30
6 0 10 14 10 30 0 17 5 30 10 30 6 0 10 14 10 30 0 17 5 30 10 30 6 0 10 14
10 30 0 17 5 30 10 30 6 0 10 24 10 52 0 34 13 92 36 161 41 123 49 101 -61
181 -212 154 -496 242 -895 276 -602 51 -1048 -79 -1383 -405 -133 -129 -212
-251 -320 -495 l-16 -35 0 42 c-1 23 -5 43 -10 45 -6 2 -13 169 -17 391 l-7
387 -1876 -1 c-1032 -1 -2123 -5 -2426 -8 l-550 -6 -351 -1135 c-452 -1464
-411 -1340 -427 -1299 -9 24 -276 810 -477 1404 -123 365 -249 733 -311 913
l-42 122 -252 0 -253 0 -327 -982 c-381 -1143 -496 -1478 -505 -1478 -4 0
-153 470 -333 1044 -179 574 -353 1126 -386 1227 l-60 184 -525 3 c-303 1
-526 -2 -526 -7 0 -12 61 -202 377 -1171 74 -228 197 -607 274 -842 251 -770
419 -1286 561 -1723 77 -236 185 -568 240 -737 l101 -308 242 0 241 0 23 50
c12 27 27 50 32 50 5 0 9 14 9 30 0 17 5 30 10 30 6 0 10 9 10 20 0 11 5 20
10 20 6 0 10 9 10 20 0 11 5 20 10 20 6 0 10 14 10 30 0 17 5 30 10 30 6 0 10
14 10 30 0 17 5 30 10 30 6 0 10 14 10 30 0 17 5 30 10 30 6 0 10 14 10 30 0
17 5 30 10 30 6 0 10 14 10 30 0 17 5 30 10 30 6 0 10 14 10 30 0 17 5 30 10
30 6 0 10 14 10 30 0 17 5 30 10 30 6 0 10 14 10 30 0 17 5 30 10 30 6 0 10
14 10 30 0 17 5 30 10 30 6 0 10 14 10 30 0 17 5 30 10 30 6 0 10 14 10 30 0
17 5 30 10 30 6 0 10 14 10 30 0 17 5 30 10 30 6 0 10 14 10 30 0 17 5 30 10
30 6 0 10 14 10 30 0 17 5 30 10 30 6 0 10 14 10 30 0 17 5 30 10 30 6 0 10
14 10 30 0 17 5 30 10 30 6 0 10 14 10 30 0 17 5 30 10 30 6 0 10 14 10 30 0
17 5 30 10 30 6 0 10 14 10 30 0 17 5 30 10 30 6 0 10 14 10 30 0 17 5 30 10
30 6 0 10 14 10 30 0 17 5 30 10 30 6 0 10 14 10 30 0 17 5 30 10 30 6 0 10
14 10 30 0 17 5 30 10 30 6 0 10 14 10 30 0 17 5 30 10 30 6 0 10 14 10 30 0
17 5 30 10 30 6 0 10 9 10 20 0 11 5 20 10 20 6 0 10 14 10 30 0 17 5 30 10
30 6 0 10 14 10 30 0 17 5 30 10 30 6 0 10 14 10 30 0 17 5 30 10 30 6 0 10
14 10 30 0 17 5 30 10 30 6 0 10 14 10 30 0 17 5 30 10 30 6 0 10 14 10 30 0
17 5 30 10 30 6 0 10 14 10 30 0 17 5 30 10 30 6 0 10 14 10 30 0 17 5 30 10
30 6 0 10 9 10 20 0 11 5 20 10 20 6 0 10 8 10 18 0 10 9 24 20 32 11 8 20 20
20 28 0 18 25 42 44 42 9 0 16 5 16 10 0 6 4 10 9 10 12 0 47 -96 469 -1310
204 -586 376 -1080 383 -1097 l11 -33 242 0 243 0 12 40 c6 22 16 40 21 40 6
0 10 9 10 20 0 11 5 20 10 20 6 0 10 9 10 20 0 11 5 20 10 20 6 0 10 9 10 20
0 11 5 20 10 20 6 0 10 18 10 40 0 22 5 40 10 40 6 0 10 14 10 30 0 17 5 30
10 30 6 0 10 14 10 30 0 17 5 30 10 30 6 0 10 14 10 30 0 17 5 30 10 30 6 0
10 14 10 30 0 17 5 30 10 30 6 0 10 14 10 30 0 17 5 30 10 30 6 0 10 18 10 40
0 22 5 40 10 40 6 0 10 14 10 30 0 17 5 30 10 30 6 0 10 14 10 30 0 17 5 30
10 30 6 0 10 14 10 30 0 17 5 30 10 30 6 0 10 14 10 30 0 17 5 30 10 30 6 0
10 14 10 30 0 17 5 30 10 30 6 0 10 14 10 30 0 17 5 30 10 30 6 0 10 18 10 40
0 22 5 40 10 40 6 0 10 14 10 30 0 17 5 30 10 30 6 0 10 14 10 30 0 17 5 30
10 30 6 0 10 14 10 30 0 17 5 30 10 30 6 0 10 14 10 30 0 17 5 30 10 30 6 0
10 14 10 30 0 17 5 30 10 30 6 0 10 14 10 30 0 17 5 30 10 30 6 0 10 18 10 40
0 22 5 40 10 40 6 0 10 14 10 30 0 17 5 30 10 30 6 0 10 14 10 30 0 17 5 30
10 30 6 0 10 14 10 30 0 17 5 30 10 30 6 0 10 14 10 30 0 17 5 30 10 30 6 0
10 14 10 30 0 17 5 30 10 30 6 0 10 18 10 40 0 22 5 40 10 40 6 0 10 14 10 30
0 17 5 30 10 30 6 0 10 14 10 30 0 17 5 30 10 30 6 0 10 14 10 30 0 17 5 30
10 30 6 0 10 14 10 30 0 17 5 30 10 30 6 0 10 14 10 30 0 17 5 30 10 30 6 0
10 14 10 30 0 17 5 30 10 30 6 0 10 18 10 40 0 22 5 40 10 40 6 0 10 14 10 30
0 17 5 30 10 30 6 0 10 14 10 30 0 17 5 30 10 30 6 0 10 14 10 30 0 17 5 30
10 30 6 0 10 14 10 30 0 17 5 30 10 30 6 0 10 14 10 30 0 17 5 30 10 30 6 0
10 14 10 30 0 17 5 30 10 30 6 0 10 18 10 40 0 22 5 40 10 40 6 0 10 14 10 30
0 17 5 30 10 30 6 0 10 14 10 30 0 17 5 30 10 30 6 0 10 14 10 30 0 17 5 30
10 30 6 0 10 14 10 30 0 17 5 30 10 30 6 0 10 14 10 30 0 17 5 30 10 30 6 0
10 18 10 40 0 22 5 40 10 40 6 0 10 14 10 30 0 17 5 30 10 30 6 0 10 14 10 30
0 17 5 30 10 30 6 0 10 14 10 30 0 17 5 30 10 30 6 0 10 14 10 30 0 17 5 30
10 30 6 0 10 14 10 30 0 17 5 30 10 30 6 0 10 14 10 30 0 17 5 30 10 30 6 0
10 14 10 30 0 17 5 30 10 30 6 0 10 9 10 20 0 11 5 20 10 20 6 0 10 9 10 20 0
11 5 20 10 20 6 0 10 7 10 15 0 20 105 125 125 125 8 0 15 5 15 10 0 6 14 10
30 10 17 0 30 5 30 10 0 9 685 16 692 8 1 -2 4 -852 8 -1890 3 -1037 8 -1889
11 -1892 10 -11 592 -19 801 -11 l208 7 0 1804 c0 1196 3 1804 10 1804 6 0 10
9 10 20 0 11 5 20 10 20 6 0 10 7 10 15 0 20 85 105 104 105 8 0 16 6 18 13 4
9 115 13 501 15 l497 3 0 -1263 c0 -695 3 -1549 7 -1899 l6 -636 343 -7 c188
-4 415 -4 503 0 l161 7 0 39 c0 32 7 46 45 83 24 25 51 45 60 45 8 0 15 5 15
10 0 18 29 11 102 -26 339 -171 770 -254 1163 -224 77 6 184 13 238 17 53 3
97 10 97 14 0 5 23 9 50 9 28 0 50 5 50 10 0 6 23 10 50 10 28 0 50 5 50 10 0
6 18 10 40 10 22 0 40 5 40 10 0 6 14 10 30 10 17 0 30 5 30 10 0 6 9 10 20
10 11 0 20 5 20 10 0 6 14 10 30 10 17 0 30 5 30 10 0 6 9 10 20 10 11 0 20 5
20 10 0 6 9 10 20 10 11 0 20 5 20 10 0 6 9 10 20 10 11 0 20 5 20 10 0 6 9
10 20 10 11 0 20 5 20 10 0 6 8 10 18 10 10 0 24 9 32 20 8 11 21 20 28 20 8
0 27 14 42 30 15 17 33 30 39 30 15 0 201 186 201 201 0 6 14 24 30 39 17 15
30 34 30 42 0 7 9 20 20 28 11 8 20 21 20 30 0 9 9 22 20 30 11 8 20 20 20 28
0 17 45 62 62 62 8 0 20 9 28 20 8 11 21 20 30 20 8 -1 42 -37 75 -82 278
-374 670 -619 1135 -712 167 -33 310 -46 507 -46 l163 0 0 -27 c0 -16 3 -45 6
-66 l7 -37 2163 0 2164 0 0 420 0 420 -1377 0 c-758 0 -1434 3 -1504 6 l-125
7 -96 166 c-53 91 -101 179 -107 194 -14 36 2 289 25 390 24 107 66 187 133
254 76 75 146 116 252 147 142 41 241 46 853 46 332 0 617 4 677 11 624 63
1003 331 1178 831 103 294 119 771 37 1089 -73 284 -155 438 -322 605 -142
142 -408 266 -664 309 -187 32 -317 35 -1483 35 -1127 0 -1181 1 -1265 19
-127 28 -281 50 -407 56 -229 11 -283 12 -405 4z m-2685 -124 c217 -28 413
-83 557 -156 55 -28 178 -105 178 -112 0 -4 -241 -692 -244 -694 -1 -1 -33 19
-71 44 -252 162 -541 253 -808 253 -131 0 -226 -18 -311 -58 -159 -76 -250
-203 -277 -388 -23 -151 28 -280 169 -426 155 -161 293 -253 682 -453 398
-205 546 -301 696 -451 50 -50 118 -132 153 -185 l63 -94 -8 110 c-12 176 -7
498 10 643 64 540 250 965 592 1356 200 229 499 432 780 529 125 44 296 82
433 98 134 15 549 6 686 -15 300 -45 539 -126 748 -253 31 -19 57 -36 57 -39
0 -2 -74 -153 -165 -334 l-165 -330 -62 50 c-171 138 -441 212 -773 213 -231
1 -380 -32 -552 -122 -341 -179 -621 -592 -712 -1051 -37 -188 -44 -272 -45
-490 0 -375 53 -643 179 -905 71 -147 159 -267 276 -378 151 -144 314 -230
519 -274 113 -24 385 -24 515 0 275 50 516 185 689 384 l45 52 28 -47 c16 -26
101 -172 188 -326 l159 -278 -54 -48 -53 -47 -441 -6 c-243 -4 -827 -7 -1298
-7 l-856 0 -81 76 c-179 169 -344 409 -442 647 l-36 89 -8 -78 c-23 -262 -126
-489 -303 -676 l-55 -58 -1164 0 c-639 0 -1163 3 -1163 8 0 16 244 612 251
612 4 0 51 -28 105 -61 285 -179 543 -259 840 -259 419 0 642 133 685 409 31
207 -64 442 -247 610 -123 113 -349 253 -644 401 -182 91 -359 192 -490 278
-293 194 -472 470 -527 815 -24 153 -14 409 21 542 52 198 168 389 326 539
213 199 483 319 806 356 111 13 476 4 619 -15z m-1985 -2145 l0 -2090 -398 0
-399 0 -6 932 c-4 512 -7 1291 -7 1730 l0 798 -685 0 -685 0 0 -1735 0 -1735
-398 0 -399 0 -6 482 c-4 265 -7 1045 -7 1735 l0 1253 -537 -2 -536 -3 -224
-705 c-554 -1744 -839 -2636 -869 -2718 l-16 -42 -296 2 -295 3 -44 120 c-68
188 -512 1456 -720 2058 -47 136 -87 246 -89 244 -2 -2 -152 -444 -333 -983
-398 -1185 -481 -1427 -489 -1435 -4 -4 -138 -10 -298 -14 l-292 -7 -105 319
c-262 788 -1257 3846 -1257 3861 0 9 104 12 415 12 l415 0 10 -22 c7 -16 813
-2589 844 -2693 1 -5 207 602 457 1350 l454 1360 180 0 179 0 338 -995 c185
-547 390 -1152 454 -1345 65 -192 121 -353 124 -358 4 -5 639 2033 822 2640
l19 63 862 3 c474 1 1527 3 2340 5 l1477 2 0 -2090z m4930 1341 c0 -5 69 -11
153 -14 114 -3 172 -10 232 -26 125 -34 254 -102 332 -173 38 -34 80 -73 95
-86 l26 -24 38 69 c20 37 52 82 71 99 18 18 33 38 33 46 0 7 9 20 20 28 11 8
20 20 20 28 0 7 7 20 15 28 13 13 121 15 847 11 575 -3 851 -8 890 -16 194
-39 314 -143 375 -325 24 -72 27 -97 28 -216 0 -151 -12 -213 -57 -304 -57
-114 -180 -215 -313 -257 -30 -9 -214 -14 -710 -19 -524 -6 -703 -11 -820 -24
-281 -31 -445 -74 -601 -156 -361 -191 -520 -375 -605 -700 -47 -183 -51 -221
-56 -611 l-5 -376 -59 -6 c-69 -8 -233 6 -325 28 -431 100 -744 505 -828 1069
-19 124 -23 616 -6 616 6 0 10 23 10 50 0 28 5 50 10 50 6 0 10 23 10 50 0 28
5 50 10 50 6 0 10 18 10 40 0 22 5 40 10 40 6 0 10 14 10 30 0 17 5 30 10 30
6 0 10 17 10 38 0 26 6 42 20 52 12 8 20 26 20 42 0 15 5 28 10 28 6 0 10 14
10 30 0 17 5 30 10 30 6 0 10 8 10 18 0 10 9 24 20 32 11 8 20 21 20 30 0 9 9
22 20 30 11 8 20 22 20 32 0 10 5 18 10 18 6 0 10 7 10 16 0 9 14 29 30 44 17
15 30 33 30 40 0 7 14 25 30 40 17 15 30 33 30 39 0 15 126 141 141 141 6 0
28 18 49 40 21 22 45 40 52 40 7 0 20 9 28 20 8 11 22 20 32 20 10 0 18 5 18
10 0 6 9 10 20 10 11 0 20 5 20 10 0 6 9 10 20 10 11 0 20 5 20 10 0 6 9 10
20 10 11 0 20 5 20 10 0 6 9 10 20 10 11 0 20 5 20 10 0 6 14 10 30 10 17 0
30 5 30 10 0 6 18 10 40 10 22 0 40 5 40 10 0 6 23 10 50 10 28 0 50 5 50 10
0 6 23 10 50 10 28 0 50 -4 50 -9z"/>
<path d="M31885 6760 c-199 -10 -324 -24 -485 -56 -354 -70 -578 -154 -829
-309 -377 -233 -630 -601 -785 -1143 -99 -342 -131 -640 -123 -1112 6 -327 23
-499 72 -726 204 -941 717 -1453 1645 -1638 540 -108 1129 -92 1688 45 291 71
531 185 747 354 417 326 638 792 751 1581 21 149 30 630 15 805 -33 381 -124
773 -244 1051 -238 555 -691 915 -1322 1052 -383 83 -753 114 -1130 96z m530
-835 c196 -34 459 -139 578 -230 57 -43 182 -191 244 -288 59 -92 168 -387
199 -537 32 -155 47 -365 48 -665 1 -341 -19 -504 -94 -771 -73 -257 -218
-505 -367 -629 -339 -281 -920 -363 -1418 -200 -201 65 -345 152 -475 285
-139 141 -229 317 -295 576 -66 255 -79 378 -79 749 -1 214 4 367 12 435 41
331 133 617 260 809 170 257 494 430 902 480 104 13 377 6 485 -14z"/>
<path d="M24980 6280 l0 -429 1353 -4 c984 -3 1368 -7 1409 -16 195 -39 314
-143 375 -325 25 -73 27 -96 27 -221 1 -155 -12 -215 -66 -317 -54 -102 -176
-198 -303 -239 -30 -9 -209 -14 -710 -19 -523 -6 -703 -11 -819 -24 -357 -40
-521 -94 -763 -249 -163 -105 -252 -195 -348 -354 -62 -102 -125 -328 -144
-522 -7 -64 -11 -424 -11 -942 l0 -839 2165 0 2165 0 0 420 0 420 -1610 0
-1610 0 0 233 c0 363 26 568 88 680 34 63 123 152 193 194 69 41 201 79 322
92 57 7 329 11 671 11 703 0 837 12 1091 95 388 127 638 374 766 757 102 303
116 763 35 1079 -73 284 -155 438 -322 605 -142 142 -408 266 -664 309 -191
33 -316 35 -1797 35 l-1493 0 0 -430z"/>
<path d="M34288 1400 c-16 -28 -28 -52 -28 -55 0 -3 15 -5 34 -5 34 0 39 5
109 98 7 9 -2 12 -39 12 -48 0 -49 -1 -76 -50z"/>
<path d="M16102 1408 c-11 -13 -24 -35 -27 -50 -7 -25 -5 -28 20 -28 15 0 33
7 40 17 11 15 16 15 62 -2 76 -27 116 -9 138 63 5 19 3 22 -21 22 -15 0 -36
-8 -46 -17 -17 -15 -21 -15 -54 0 -48 23 -86 21 -112 -5z"/>
<path d="M20456 1399 c-32 -38 -34 -69 -4 -69 12 0 29 7 39 16 16 14 22 14 66
-2 68 -24 99 -14 123 39 l19 42 -25 3 c-14 2 -34 -4 -45 -13 -17 -16 -21 -16
-59 -1 -59 24 -85 20 -114 -15z"/>
<path d="M1393 1301 c-77 -20 -149 -94 -173 -179 -14 -53 -12 -171 4 -226 36
-119 103 -169 223 -169 126 1 205 64 238 190 19 73 19 133 0 208 -18 70 -56
121 -111 152 -44 24 -133 36 -181 24z m136 -108 c45 -33 61 -79 61 -171 0 -95
-14 -137 -59 -175 -68 -57 -152 -41 -193 35 -18 35 -22 59 -22 133 0 64 4 99
16 120 17 32 54 69 78 78 26 11 92 -1 119 -20z"/>
<path d="M2855 1303 c-46 -11 -86 -37 -106 -70 -17 -28 -21 -45 -17 -94 5 -72
20 -89 133 -157 89 -53 113 -89 92 -132 -23 -45 -81 -47 -180 -5 -13 6 -20 -1
-32 -29 -8 -19 -15 -40 -15 -46 0 -20 74 -43 140 -43 138 0 214 79 188 196
-12 55 -33 79 -109 123 -86 50 -119 81 -119 115 0 53 65 74 137 44 19 -8 37
-15 39 -15 2 0 11 17 19 37 20 47 9 59 -64 73 -56 10 -73 11 -106 3z"/>
<path d="M3844 1299 c-56 -13 -117 -68 -151 -136 -23 -49 -27 -69 -27 -142 1
-105 15 -157 57 -212 45 -60 94 -82 175 -82 85 1 143 24 187 75 47 56 65 115
65 219 0 95 -16 153 -55 205 -47 61 -161 94 -251 73z m143 -105 c35 -23 56
-73 61 -149 5 -89 -11 -150 -51 -190 -63 -62 -158 -50 -202 25 -29 51 -29 219
0 270 39 66 128 87 192 44z"/>
<path d="M7203 1300 c-134 -28 -220 -179 -196 -346 24 -167 135 -251 298 -224
52 8 125 43 125 58 0 4 -11 23 -23 43 l-22 37 -24 -19 c-57 -46 -154 -44 -199
4 -53 56 -69 183 -33 262 43 97 125 124 234 80 13 -6 20 1 32 29 20 46 20 45
-17 60 -46 19 -125 26 -175 16z"/>
<path d="M8193 1301 c-77 -20 -149 -94 -173 -179 -14 -53 -12 -171 4 -226 36
-119 103 -169 223 -169 126 1 205 64 238 190 40 153 -6 302 -111 360 -44 24
-133 36 -181 24z m136 -108 c45 -33 61 -79 61 -171 0 -95 -14 -137 -59 -175
-68 -57 -152 -41 -193 35 -18 35 -22 59 -22 133 0 64 4 99 16 120 17 32 54 69
78 78 26 11 92 -1 119 -20z"/>
<path d="M9176 1299 c-125 -30 -200 -178 -177 -345 24 -168 131 -252 283 -224
67 13 105 36 145 88 41 54 55 107 56 202 0 93 -14 144 -54 199 -49 68 -160
103 -253 80z m141 -105 c35 -23 56 -73 61 -149 5 -89 -11 -150 -51 -190 -63
-62 -158 -50 -202 25 -29 51 -29 208 1 265 36 71 124 93 191 49z"/>
<path d="M9761 1300 c-97 -21 -176 -96 -202 -195 -6 -22 -9 -76 -7 -121 5
-102 42 -174 109 -216 84 -52 216 -55 310 -7 l39 19 0 130 0 130 -85 0 -85 0
0 -45 c0 -45 0 -45 35 -45 l35 0 0 -56 c0 -54 -1 -55 -36 -70 -68 -29 -157 5
-198 76 -32 53 -30 170 4 228 27 48 68 77 122 87 28 5 49 1 92 -18 l56 -26 21
41 c17 33 18 42 7 50 -52 37 -144 53 -217 38z"/>
<path d="M13557 1296 c-70 -19 -103 -51 -145 -136 -24 -48 -27 -67 -26 -150 0
-76 5 -105 23 -145 45 -101 105 -139 218 -138 154 1 243 108 243 293 0 89 -18
157 -54 204 -50 66 -166 98 -259 72z m148 -102 c81 -53 85 -280 6 -347 -69
-57 -158 -38 -198 43 -18 35 -23 61 -23 125 0 99 26 160 80 188 40 20 96 17
135 -9z"/>
<path d="M15687 1296 c-63 -17 -113 -59 -150 -125 -59 -104 -46 -286 25 -367
36 -40 96 -74 133 -74 27 0 32 -9 13 -28 -9 -9 -10 -15 -2 -20 17 -11 23 -39
11 -51 -6 -6 -24 -11 -40 -11 -22 0 -28 -4 -23 -16 3 -9 6 -20 6 -25 0 -18 87
-10 114 12 32 25 36 79 7 108 -23 23 -18 31 18 31 35 1 110 35 117 54 3 9 -4
31 -16 51 l-22 35 -29 -24 c-68 -58 -173 -36 -220 47 -20 34 -24 56 -24 117 0
100 28 154 98 189 50 25 64 24 152 -4 17 -5 24 1 38 30 22 46 22 44 -15 59
-52 21 -138 27 -191 12z"/>
<path d="M16665 1301 c-73 -19 -117 -56 -157 -131 -18 -36 -24 -65 -26 -138
-8 -200 71 -305 228 -305 112 0 188 48 231 147 33 73 33 219 1 291 -27 60 -55
91 -102 115 -41 21 -132 32 -175 21z m131 -106 c40 -26 64 -89 64 -169 0 -90
-16 -140 -56 -175 -67 -59 -158 -44 -197 32 -24 47 -33 157 -18 214 13 46 53
100 85 114 29 12 92 4 122 -16z"/>
<path d="M17954 1300 c-78 -18 -148 -94 -173 -185 -16 -58 -13 -153 5 -216 35
-120 105 -174 225 -173 166 2 257 120 247 319 -8 148 -70 233 -187 255 -60 11
-72 11 -117 0z m136 -108 c49 -37 65 -79 65 -172 -1 -111 -25 -162 -92 -192
-59 -26 -102 -18 -141 27 -29 33 -35 48 -47 130 -7 51 10 143 33 175 43 59
126 73 182 32z"/>
<path d="M18681 1300 c-77 -19 -125 -84 -118 -161 5 -64 33 -98 117 -144 109
-60 147 -118 102 -158 -36 -33 -84 -31 -173 7 -13 5 -20 -3 -33 -34 -9 -22
-16 -43 -16 -46 0 -15 83 -37 142 -37 129 0 203 64 195 170 -5 69 -36 108
-127 158 -106 58 -133 102 -90 145 24 24 83 26 120 5 14 -8 30 -14 37 -15 11
0 33 50 33 76 0 26 -129 49 -189 34z"/>
<path d="M21011 1299 c-61 -15 -132 -87 -156 -160 -23 -67 -23 -190 -1 -257
35 -104 106 -155 216 -155 143 0 226 75 250 227 18 113 -12 238 -72 293 -51
48 -156 71 -237 52z m145 -104 c41 -27 64 -89 64 -175 0 -127 -53 -202 -144
-204 -91 -2 -141 77 -134 214 4 91 29 147 79 173 40 21 96 18 135 -8z"/>
<path d="M21830 1301 c-79 -17 -144 -73 -181 -156 -18 -39 -22 -68 -22 -135 1
-135 43 -219 130 -261 80 -39 210 -28 277 23 19 15 18 16 -4 56 -21 37 -25 40
-40 27 -53 -48 -143 -54 -196 -12 -80 62 -87 238 -13 322 50 56 115 66 201 30
13 -5 22 3 37 33 l20 40 -37 15 c-48 19 -127 27 -172 18z"/>
<path d="M25340 940 l0 -370 40 0 40 0 0 370 0 370 -40 0 -40 0 0 -370z"/>
<path d="M27070 1301 c-71 -15 -137 -68 -174 -140 -37 -71 -37 -228 -1 -305
23 -48 70 -95 115 -114 52 -22 165 -20 221 5 26 12 49 26 53 32 4 5 -2 28 -14
50 l-20 40 -35 -24 c-47 -31 -85 -39 -133 -25 -155 41 -147 348 9 390 44 12
91 6 125 -15 19 -12 22 -10 42 30 l21 43 -37 15 c-45 20 -125 28 -172 18z"/>
<path d="M28297 1296 c-63 -17 -113 -59 -150 -125 -26 -45 -31 -68 -35 -136
-10 -195 79 -308 243 -308 75 0 160 28 171 57 3 9 -4 31 -16 51 l-22 35 -29
-24 c-68 -58 -173 -36 -220 47 -20 34 -24 56 -24 117 0 99 33 162 103 192 46
21 63 20 147 -7 17 -5 24 1 38 30 22 46 22 44 -15 59 -52 21 -138 27 -191 12z"/>
<path d="M30795 1303 c-82 -20 -125 -71 -125 -150 0 -71 28 -108 125 -164 97
-55 130 -100 103 -142 -29 -43 -83 -44 -181 -2 -13 6 -20 -1 -32 -29 -8 -19
-15 -40 -15 -45 0 -30 118 -55 192 -41 97 19 154 89 142 175 -10 63 -34 94
-109 138 -93 54 -125 84 -125 118 0 53 65 74 137 44 19 -8 37 -15 40 -15 2 0
11 16 19 36 20 47 8 60 -65 74 -56 10 -73 11 -106 3z"/>
<path d="M31471 1295 c-56 -18 -114 -74 -142 -139 -31 -72 -32 -210 -1 -279
46 -104 98 -144 201 -154 43 -4 63 -12 86 -33 41 -38 86 -59 151 -71 78 -14
94 -7 94 44 l0 42 -63 1 c-38 0 -75 7 -95 18 l-34 17 45 45 c59 58 78 116 78
231 0 97 -15 154 -56 208 -51 66 -175 99 -264 70z m129 -91 c56 -23 82 -69 88
-158 2 -39 -1 -90 -7 -114 -37 -134 -182 -164 -243 -49 -19 35 -23 58 -23 137
0 110 18 153 75 182 43 22 59 22 110 2z"/>
<path d="M490 1288 c0 -6 39 -135 88 -285 84 -263 88 -273 111 -271 22 3 30
19 82 173 34 103 59 164 63 154 4 -8 31 -85 60 -170 48 -137 56 -154 77 -157
23 -3 28 9 112 275 48 153 88 281 87 286 0 4 -22 7 -49 7 l-50 0 -36 -117
c-57 -187 -67 -215 -71 -210 -3 2 -28 76 -58 163 -48 145 -55 159 -76 159 -21
0 -28 -14 -76 -159 -30 -87 -55 -161 -58 -163 -3 -4 -71 201 -102 310 -4 13
-16 17 -55 17 -31 0 -49 -4 -49 -12z"/>
<path d="M1790 1015 l0 -285 50 0 50 0 0 120 0 120 30 0 c28 0 37 -10 108
-120 l77 -120 59 0 58 0 -18 28 c-9 15 -46 70 -82 123 l-64 97 45 45 c32 32
47 55 52 84 14 87 -31 160 -113 183 -20 5 -85 10 -144 10 l-108 0 0 -285z
m240 170 c26 -24 27 -78 1 -104 -21 -21 -74 -35 -112 -29 -23 3 -24 7 -27 82
l-3 78 60 -4 c40 -3 67 -11 81 -23z"/>
<path d="M2270 1015 l0 -286 48 3 47 3 3 79 c3 70 7 85 32 119 l29 40 78 -121
78 -121 59 -1 c47 0 57 3 53 15 -3 8 -47 75 -97 150 -50 75 -93 141 -96 148
-2 7 34 66 82 132 l85 120 -47 3 c-25 2 -52 1 -59 -2 -7 -2 -53 -61 -101 -131
l-89 -126 -5 128 -5 128 -47 3 -48 3 0 -286z"/>
<path d="M3155 1287 c-3 -7 -4 -134 -3 -282 l3 -270 47 -3 47 -3 3 128 3 128
110 0 110 0 3 -128 3 -128 47 3 47 3 0 280 0 280 -47 3 -48 3 0 -110 0 -111
-115 0 -115 0 0 110 0 110 -45 0 c-28 0 -48 -5 -50 -13z"/>
<path d="M4245 1287 c-3 -7 -4 -134 -3 -282 l3 -270 48 -3 47 -3 0 104 0 104
79 5 c122 7 178 52 196 154 15 95 -38 172 -135 193 -72 16 -229 15 -235 -2z
m240 -107 c25 -23 33 -68 19 -105 -10 -25 -59 -45 -114 -45 l-50 0 0 91 0 91
60 -4 c45 -3 66 -10 85 -28z"/>
<path d="M4930 1015 l0 -285 67 0 c167 0 264 42 312 135 21 41 26 67 29 147 4
90 2 102 -22 152 -49 100 -126 136 -288 136 l-98 0 0 -285z m230 177 c90 -48
109 -223 33 -313 -32 -37 -79 -59 -128 -59 l-35 0 0 195 0 195 48 0 c26 0 63
-8 82 -18z"/>
<path d="M5430 1015 l0 -285 178 2 177 3 3 42 3 42 -128 3 -128 3 -3 83 -3 82
96 0 96 0 -3 43 -3 42 -92 3 -93 3 0 64 0 65 130 0 130 0 0 45 0 45 -180 0
-180 0 0 -285z"/>
<path d="M6050 1255 l0 -45 90 0 90 0 0 -240 0 -240 50 0 50 0 0 240 0 240 96
0 95 0 -3 43 -3 42 -232 3 -233 2 0 -45z"/>
<path d="M6580 1015 l0 -285 178 2 177 3 3 42 3 42 -128 3 -128 3 -3 83 -3 82
96 0 95 0 0 45 0 45 -95 0 -95 0 0 65 0 65 130 0 130 0 0 45 0 45 -180 0 -180
0 0 -285z"/>
<path d="M7510 1014 l0 -285 48 3 47 3 5 167 5 167 129 -169 c102 -134 135
-170 153 -170 l23 0 0 286 0 285 -47 -3 -48 -3 -5 -163 -5 -163 -129 166
c-101 129 -135 165 -153 165 l-23 0 0 -286z"/>
<path d="M8590 1016 l0 -286 175 0 175 0 0 45 0 45 -125 0 -125 0 -2 238 -3
237 -47 3 -48 3 0 -285z"/>
<path d="M10105 1287 c-3 -7 -4 -134 -3 -282 l3 -270 48 -3 47 -3 0 285 0 286
-45 0 c-28 0 -48 -5 -50 -13z"/>
<path d="M10382 1037 c-57 -145 -106 -274 -109 -286 -5 -21 -3 -22 48 -19 l54
3 20 58 20 57 95 0 96 0 21 -57 20 -58 57 -3 56 -3 -19 50 c-10 28 -61 157
-113 286 -126 317 -110 318 -246 -28z m188 -104 c0 -9 -19 -13 -60 -13 -43 0
-60 4 -60 13 0 11 34 120 56 177 5 14 64 -149 64 -177z"/>
<path d="M11010 1015 l0 -288 109 6 c204 11 287 79 306 253 14 125 -30 227
-122 280 -43 26 -57 29 -170 32 l-123 4 0 -287z m248 169 c43 -32 62 -80 62
-159 0 -95 -27 -151 -90 -183 -28 -14 -59 -22 -80 -20 l-35 3 -3 194 -2 193
60 -4 c39 -3 70 -11 88 -24z"/>
<path d="M11677 1288 c-3 -7 -51 -130 -107 -273 -56 -143 -105 -266 -107 -273
-4 -10 8 -12 52 -10 l58 3 20 58 19 58 95 -3 96 -3 20 -57 21 -58 53 0 c29 0
53 4 53 9 0 5 -49 132 -109 283 -99 249 -111 273 -133 276 -14 2 -28 -3 -31
-10z m63 -263 c17 -49 30 -92 30 -97 0 -4 -30 -8 -66 -8 -49 0 -65 3 -61 13 2
6 17 51 33 99 15 48 29 86 31 84 2 -1 17 -43 33 -91z"/>
<path d="M12210 1015 l0 -285 50 0 50 0 0 285 0 285 -50 0 -50 0 0 -285z"/>
<path d="M12430 1015 l0 -285 45 0 45 0 2 173 3 172 133 -172 c108 -141 138
-173 158 -173 l24 0 -2 283 -3 282 -47 3 -48 3 -2 -168 -3 -168 -109 140
c-136 174 -155 195 -178 195 -17 0 -18 -16 -18 -285z"/>
<path d="M12950 1015 l0 -285 50 0 50 0 0 130 0 130 100 0 100 0 0 45 0 45
-100 0 -100 0 0 65 0 65 135 0 135 0 0 45 0 45 -185 0 -185 0 0 -285z"/>
<path d="M13960 1016 l0 -286 50 0 49 0 3 118 3 117 30 3 c28 2 35 -5 108
-118 l77 -120 104 0 104 0 28 145 c15 80 31 145 34 145 3 0 28 -64 56 -143 41
-115 55 -143 71 -145 17 -2 24 6 37 40 9 24 34 90 55 148 22 59 42 98 45 90 3
-8 15 -67 26 -130 29 -160 24 -150 76 -150 35 0 44 3 44 18 0 14 -85 443 -105
530 -5 18 -11 23 -32 20 -25 -3 -30 -12 -79 -171 -29 -92 -55 -176 -59 -185
-6 -15 -77 184 -116 321 -9 34 -13 38 -37 35 l-27 -3 -55 -273 c-30 -149 -58
-271 -63 -269 -4 1 -41 54 -82 117 l-74 114 33 22 c93 63 87 218 -10 268 -32
17 -62 22 -166 24 l-128 4 0 -286z m230 179 c36 -19 49 -59 29 -94 -20 -36
-56 -52 -109 -49 l-45 3 -3 64 c-2 35 -1 70 2 77 7 19 89 18 126 -1z"/>
<path d="M15086 1028 c-60 -150 -110 -279 -113 -286 -4 -10 8 -12 52 -10 l58
3 20 58 19 58 95 -3 95 -3 22 -55 22 -55 53 -3 c51 -3 53 -2 47 20 -3 13 -52
140 -109 283 -139 350 -120 351 -261 -7z m165 -5 c16 -49 29 -91 29 -95 0 -9
-114 -11 -122 -2 -3 3 8 47 25 99 17 52 33 92 36 90 2 -3 17 -44 32 -92z"/>
<path d="M16066 1033 c-58 -147 -108 -276 -112 -286 -6 -16 -1 -18 51 -15 l58
3 20 58 19 58 96 -3 95 -3 20 -57 19 -58 54 0 c30 0 54 3 54 8 0 4 -49 131
-109 282 -145 367 -125 366 -265 13z m164 -8 c17 -49 30 -92 30 -97 0 -4 -30
-8 -66 -8 -49 0 -65 3 -61 13 2 6 16 52 31 101 15 48 29 86 32 84 2 -3 18 -45
34 -93z"/>
<path d="M17290 1015 l0 -288 103 5 c136 7 182 22 237 78 97 97 107 305 18
406 -56 63 -97 78 -235 82 l-123 4 0 -287z m248 168 c47 -35 64 -75 64 -153 0
-54 -6 -82 -24 -117 -31 -64 -63 -85 -129 -87 l-54 -1 -3 194 -2 193 60 -4
c40 -3 70 -11 88 -25z"/>
<path d="M18990 1015 l0 -285 175 0 175 0 0 45 0 45 -125 0 -125 0 0 85 0 85
90 0 90 0 0 45 0 45 -90 0 -90 0 0 65 0 65 131 0 130 0 -3 43 -3 42 -177 3
-178 2 0 -285z"/>
<path d="M19440 1016 l0 -286 50 0 50 0 0 120 0 120 29 0 c26 0 37 -12 107
-120 l77 -120 54 0 c29 0 53 3 53 7 0 4 -34 61 -77 126 l-76 119 32 25 c17 14
38 38 46 53 22 42 19 128 -5 167 -33 55 -69 67 -212 71 l-128 4 0 -286z m240
169 c21 -19 26 -64 10 -95 -12 -22 -61 -40 -111 -40 l-39 0 0 81 0 81 60 -4
c39 -3 66 -11 80 -23z"/>
<path d="M19837 1293 c-4 -3 -7 -24 -7 -45 l0 -38 90 0 90 0 0 -240 0 -240 50
0 50 0 0 240 0 240 95 0 95 0 0 45 0 45 -228 0 c-126 0 -232 -3 -235 -7z"/>
<path d="M20521 1278 c-5 -13 -54 -139 -110 -280 -56 -142 -101 -260 -101
-263 0 -3 24 -5 54 -5 l54 0 19 58 20 57 96 3 96 3 22 -61 22 -60 53 0 c30 0
54 3 54 6 0 3 -50 132 -111 285 -103 259 -112 279 -135 279 -16 0 -27 -8 -33
-22z m64 -243 c14 -47 28 -92 31 -100 5 -12 -5 -15 -60 -15 -36 0 -66 3 -66 7
0 12 61 193 65 193 2 0 15 -38 30 -85z"/>
<path d="M22130 1015 l0 -285 178 2 177 3 3 42 3 42 -128 3 -128 3 -3 83 -3
82 96 0 96 0 -3 43 -3 42 -92 3 -93 3 0 64 0 65 130 0 130 0 0 45 0 45 -180 0
-180 0 0 -285z"/>
<path d="M22580 1015 l0 -285 45 0 45 0 0 170 c0 94 3 170 8 170 4 -1 65 -77
136 -170 102 -135 134 -170 153 -170 l23 0 0 285 0 285 -50 0 -50 0 -2 -166
-3 -167 -130 167 c-100 128 -135 166 -152 166 l-23 0 0 -285z"/>
<path d="M23057 1293 c-4 -3 -7 -24 -7 -45 l0 -38 90 0 90 0 0 -240 0 -240 50
0 50 0 0 240 0 240 95 0 95 0 0 45 0 45 -228 0 c-126 0 -232 -3 -235 -7z"/>
<path d="M23585 1288 c-3 -7 -4 -135 -3 -283 l3 -270 53 -3 52 -3 0 120 0 121
29 0 c26 0 37 -12 106 -120 l77 -120 108 0 108 0 19 58 20 57 96 3 96 3 22
-61 22 -60 53 0 c30 0 54 3 54 6 0 3 -50 132 -111 286 -146 366 -125 366 -268
1 -58 -150 -108 -273 -111 -273 -3 0 -39 53 -81 117 l-77 117 29 18 c45 28 69
75 69 138 0 66 -24 111 -72 137 -44 23 -285 33 -293 11z m225 -91 c30 -15 45
-54 36 -91 -8 -33 -56 -56 -116 -56 l-40 0 0 80 0 80 48 0 c26 0 58 -6 72 -13z
m475 -162 c14 -47 28 -92 31 -100 5 -12 -5 -15 -60 -15 -36 0 -66 3 -66 7 0
12 61 193 65 193 2 0 15 -38 30 -85z"/>
<path d="M24560 1015 l0 -285 178 2 177 3 3 42 3 42 -128 3 -128 3 -3 238 -2
237 -50 0 -50 0 0 -285z"/>
<path d="M25900 1083 c0 -191 3 -223 19 -259 24 -52 65 -82 132 -94 121 -23
233 29 259 121 6 18 10 127 10 241 l0 208 -50 0 -50 0 0 -202 c0 -227 -4 -243
-63 -272 -50 -24 -98 -15 -131 25 l-26 31 0 209 0 209 -50 0 -50 0 0 -217z"/>
<path d="M26435 1287 c-3 -7 -4 -134 -3 -282 l3 -270 48 -3 47 -3 0 130 0 131
100 0 100 0 0 45 0 45 -100 0 -101 0 3 63 3 62 133 3 132 3 0 44 0 45 -180 0
c-136 0 -182 -3 -185 -13z"/>
<path d="M28676 1033 c-58 -147 -108 -276 -112 -286 -6 -16 -1 -18 51 -15 l58
3 20 58 19 58 96 -3 95 -3 20 -57 19 -58 54 0 c30 0 54 3 54 8 0 4 -49 131
-109 282 -145 367 -125 366 -265 13z m164 -8 c17 -49 30 -92 30 -97 0 -4 -30
-8 -66 -8 -49 0 -65 3 -61 13 2 6 16 52 31 101 15 48 29 86 32 84 2 -3 18 -45
34 -93z"/>
<path d="M29179 1298 c-10 -30 -114 -560 -111 -563 3 -3 24 -5 48 -5 l42 0 10
48 c6 26 18 88 28 137 9 50 20 93 23 97 4 5 22 -34 40 -85 73 -202 71 -198 93
-195 17 2 30 30 70 138 27 74 53 139 57 143 4 4 15 -36 25 -90 10 -54 22 -119
28 -145 l10 -48 42 0 c24 0 45 2 47 5 3 2 -20 130 -51 282 -56 276 -56 278
-83 281 -25 3 -27 -1 -76 -155 -27 -87 -53 -171 -57 -186 -3 -16 -10 -25 -14
-20 -4 4 -33 88 -64 186 -53 166 -58 177 -81 177 -14 0 -25 -1 -26 -2z"/>
<path d="M29700 1016 l0 -286 50 0 50 0 0 104 0 103 73 5 c133 9 197 70 197
189 0 118 -64 160 -252 167 l-118 4 0 -286z m215 180 c58 -25 73 -84 32 -132
-20 -23 -34 -28 -85 -32 l-62 -4 0 91 0 91 40 0 c22 0 56 -6 75 -14z"/>
<path d="M30162 1066 c3 -219 4 -236 24 -262 32 -44 65 -63 124 -74 75 -14
154 2 200 39 62 50 65 62 65 306 l0 220 -47 3 -48 3 0 -201 c0 -228 -6 -251
-67 -277 -49 -20 -96 -10 -127 28 l-26 31 0 209 0 209 -51 0 -50 0 3 -234z"/>
<path d="M31890 1081 c0 -131 4 -231 11 -248 15 -40 57 -81 98 -95 61 -20 164
-13 213 14 88 49 101 99 96 378 l-3 165 -47 3 -47 3 -3 -208 c-3 -237 -8 -253
-77 -274 -29 -9 -47 -9 -75 1 -61 20 -66 41 -66 275 l0 205 -50 0 -50 0 0
-219z"/>
<path d="M32420 1015 l0 -285 50 0 50 0 0 285 0 285 -50 0 -50 0 0 -285z"/>
<path d="M32600 1295 c0 -3 34 -65 75 -137 l76 -131 -78 -136 c-43 -75 -79
-142 -81 -148 -2 -9 11 -13 46 -13 l50 0 58 100 c33 55 61 100 64 100 3 0 34
-45 70 -100 l64 -100 53 0 c29 0 53 2 53 5 0 2 -39 64 -86 137 -47 72 -88 137
-91 144 -2 7 34 71 81 144 47 72 86 133 86 136 0 2 -22 4 -50 4 l-50 0 -64
-96 -64 -96 -57 96 -57 96 -49 0 c-27 0 -49 -2 -49 -5z"/>
<path d="M33276 1291 c-10 -16 -216 -542 -216 -552 0 -5 24 -9 53 -9 l52 0 20
58 20 57 97 3 96 3 19 -58 20 -58 57 -3 c32 -2 56 1 55 6 -2 5 -53 134 -113
286 -98 249 -111 276 -132 276 -13 0 -25 -4 -28 -9z m84 -353 c0 -15 -9 -18
-60 -18 -43 0 -60 4 -60 13 0 12 41 139 56 177 7 15 63 -138 64 -172z"/>
<path d="M33610 1014 l0 -287 110 6 c87 4 121 11 164 30 93 43 137 126 139
262 1 66 -4 90 -25 136 -46 102 -124 139 -290 139 l-98 0 0 -286z m230 178
c54 -27 82 -90 78 -177 -4 -93 -30 -143 -88 -172 -24 -13 -61 -23 -82 -23
l-38 0 0 195 0 195 48 0 c26 0 63 -8 82 -18z"/>
<path d="M34271 1278 c-5 -13 -54 -138 -110 -280 -56 -141 -101 -259 -101
-262 0 -3 24 -6 54 -6 l54 0 19 58 20 57 96 3 96 3 22 -61 22 -60 53 0 c30 0
54 2 54 5 0 3 -50 132 -111 285 -103 261 -112 280 -135 280 -16 0 -27 -8 -33
-22z m63 -243 c15 -47 29 -92 32 -100 5 -12 -6 -15 -60 -15 -36 0 -66 3 -66 7
0 11 61 193 65 193 1 0 15 -38 29 -85z"/>
<path d="M27597 1004 c-4 -4 -7 -25 -7 -46 l0 -38 106 0 105 0 -3 43 -3 42
-95 3 c-53 1 -99 0 -103 -4z"/>
</g>
</svg>
